<svg xmlns="http://www.w3.org/2000/svg" version="1.1" xmlns:xlink="http://www.w3.org/1999/xlink" xmlns:svgjs="http://svgjs.dev/svgjs" width="1500" height="1500" viewBox="0 0 1500 1500"><rect width="1500" height="1500" fill="#ffffff"></rect><g transform="matrix(0.6666666666666666,0,0,0.6666666666666666,250.2830209290172,649.7027480769231)"><svg viewBox="0 0 259 52" data-background-color="#89939e" preserveAspectRatio="xMidYMid meet" height="301" width="1500" xmlns="http://www.w3.org/2000/svg" xmlns:xlink="http://www.w3.org/1999/xlink"><g id="tight-bounds" transform="matrix(1,0,0,1,-0.07330242061544823,-0.00935000000001196)"><svg viewBox="0 0 259.1466048412309 52.0187" height="52.0187" width="259.1466048412309"><g><svg viewBox="0 0 259.1466048412309 52.0187" height="52.0187" width="259.1466048412309"><g><svg viewBox="0 0 259.1466048412309 52.0187" height="52.0187" width="259.1466048412309"><g id="textblocktransform"><svg viewBox="0 0 259.1466048412309 52.0187" height="52.0187" width="259.1466048412309" id="textblock"><g><svg viewBox="0 0 259.1466048412309 52.0187" height="52.0187" width="259.1466048412309"><g><svg><g></g><g></g></svg></g><g><svg><g><svg></svg></g><g></g></svg></g><g id="text-0"><svg viewBox="0 0 259.1466048412309 52.0187" height="52.0187" width="259.1466048412309"><g transform="matrix(1,0,0,1,0,0)"><svg width="170.1327" viewBox="0.55 -31.7 105.13000000000001 32.15" height="52.0187" data-palette-color="#ffffff"><path d="M8.65 0L5.5 0 5.5-27.3 0.55-27.3 0.55-29.55 13.7-29.55 13.7-27.3 8.65-27.3 8.65 0ZM21.75 0.45L21.75 0.45Q19.25 0.45 17.7-0.13 16.15-0.7 15.45-2.25 14.75-3.8 14.75-6.75L14.75-6.75 14.75-19.1Q14.75-22.6 16.32-23.9 17.9-25.2 21.55-25.2L21.55-25.2Q25.1-25.2 26.67-23.9 28.25-22.6 28.25-19.1L28.25-19.1 28.25-12.7 17.85-12.7 17.85-5.7Q17.85-3.3 18.6-2.38 19.35-1.45 21.65-1.45L21.65-1.45Q23.75-1.45 24.45-2.35 25.15-3.25 25.15-5.7L25.15-5.7 25.15-8.9 28.25-8.9 28.25-6.8Q28.25-3.9 27.55-2.33 26.85-0.75 25.42-0.15 24 0.45 21.75 0.45ZM17.85-19.2L17.85-14.3 25.15-14.3 25.15-19.2Q25.15-21.3 24.45-22.25 23.75-23.2 21.55-23.2L21.55-23.2Q19.35-23.2 18.6-22.25 17.85-21.3 17.85-19.2L17.85-19.2ZM38.89 0.35L38.89 0.35Q36.59 0.35 35.07-0.28 33.55-0.9 32.82-2.5 32.09-4.1 32.09-6.9L32.09-6.9 32.09-18.45Q32.09-22.05 33.67-23.6 35.24-25.15 38.89-25.15L38.89-25.15Q42.55-25.15 44.12-23.65 45.7-22.15 45.7-18.45L45.7-18.45 45.7-6.9Q45.7-4.1 44.99-2.53 44.3-0.95 42.8-0.3 41.3 0.35 38.89 0.35ZM38.89-1.6L38.89-1.6Q40.89-1.6 41.74-2.6 42.59-3.6 42.59-6.25L42.59-6.25 42.59-18.6Q42.59-21.05 41.8-22.13 40.99-23.2 38.89-23.2L38.89-23.2Q36.95-23.2 36.07-22.18 35.2-21.15 35.2-18.6L35.2-18.6 35.2-6.25Q35.2-3.65 36.07-2.63 36.95-1.6 38.89-1.6ZM56.69 0.45L56.69 0.45Q54.24 0.45 52.69-0.13 51.14-0.7 50.44-2.23 49.74-3.75 49.74-6.7L49.74-6.7 49.74-18.9Q49.74-22.55 51.32-23.88 52.89-25.2 56.54-25.2L56.54-25.2Q60.09-25.2 61.67-23.9 63.24-22.6 63.24-19.1L63.24-19.1 63.24-15.85 60.14-15.85 60.14-19.2Q60.14-21.35 59.44-22.33 58.74-23.3 56.54-23.3L56.54-23.3Q54.34-23.3 53.59-22.33 52.84-21.35 52.84-19.2L52.84-19.2 52.84-5.9Q52.84-3.5 53.59-2.53 54.34-1.55 56.64-1.55L56.64-1.55Q58.74-1.55 59.44-2.5 60.14-3.45 60.14-5.9L60.14-5.9 60.14-9.25 63.24-9.25 63.24-6.7Q63.24-3.85 62.54-2.3 61.84-0.75 60.39-0.15 58.94 0.45 56.69 0.45ZM72.19 0.35L72.19 0.35Q71.04 0.35 69.87 0.03 68.69-0.3 67.87-1.48 67.04-2.65 67.04-5.15L67.04-5.15 67.04-7.55Q67.04-10.05 68.57-11.58 70.09-13.1 72.74-14.3L72.74-14.3Q74.44-15.15 75.52-15.8 76.59-16.45 77.14-17.25 77.69-18.05 77.69-19.4L77.69-19.4 77.69-20.45Q77.69-21.65 77.19-22.3 76.69-22.95 75.87-23.2 75.04-23.45 74.14-23.45L74.14-23.45Q71.89-23.45 71.19-22.23 70.49-21 70.49-18.6L70.49-18.6 70.49-16.5 67.64-16.5 67.64-18.9Q67.64-20.75 68.14-22.18 68.64-23.6 70.04-24.43 71.44-25.25 74.14-25.25L74.14-25.25Q76.99-25.25 78.42-24.6 79.84-23.95 80.32-22.75 80.79-21.55 80.79-19.9L80.79-19.9 80.79 0 77.74 0 77.69-3.1Q77.09-1.4 75.54-0.53 73.99 0.35 72.19 0.35ZM73.34-1.75L73.34-1.75Q75.59-1.75 76.62-3.35 77.64-4.95 77.64-7.6L77.64-7.6 77.64-15.5Q77.14-14.7 75.99-14.05 74.84-13.4 73.64-12.75L73.64-12.75Q71.94-11.75 71.02-10.68 70.09-9.6 70.09-7.7L70.09-7.7 70.09-5.75Q70.09-3.95 70.59-3.1 71.09-2.25 71.84-2 72.59-1.75 73.34-1.75ZM88.69 0L85.64 0 85.64-31.7 88.69-31.7 88.69 0ZM97.04 0L93.99 0 93.99-31.7 97.04-31.7 97.04 0ZM105.38 0L102.33 0 102.33-24.75 105.38-24.75 105.38 0ZM103.88-27.8L103.88-27.8Q103.13-27.8 102.61-28.33 102.08-28.85 102.08-29.55L102.08-29.55Q102.08-30.3 102.61-30.78 103.13-31.25 103.88-31.25L103.88-31.25Q104.58-31.25 105.13-30.78 105.68-30.3 105.68-29.55L105.68-29.55Q105.68-28.85 105.13-28.33 104.58-27.8 103.88-27.8Z" opacity="1" transform="matrix(1,0,0,1,0,0)" fill="#000000" class="wordmark-text-0" data-fill-palette-color="primary"></path></svg></g><g><svg xmlns="http://www.w3.org/2000/svg" xmlns:xlink="http://www.w3.org/1999/xlink" version="1.1" x="182.414" y="0" viewBox="1.7479999999999993 18 96.253 65.252" enable-background="new 0 0 100 100" xml:space="preserve" height="52.0187" width="76.73260484123092" class="icon-cg-0" data-fill-palette-color="accent" id="cg-0"><g fill="#ffffff" data-fill-palette-color="accent"><path fill="#000000" d="M91.567 18H8.181c-3.548 0-6.433 2.888-6.433 6.432V76.82c0 3.543 2.885 6.432 6.433 6.432h83.387c3.548 0 6.433-2.889 6.433-6.432V24.432C98 20.888 95.115 18 91.567 18zM58.681 75.264c1.047-1.822 2.852-2.627 3.421-4.682 0.625-2.264-0.186-3.857 1.158-6.023 1.525-2.449 2.795-3.172 5.825-3.068 2.985 0.084 6.525 0.203 8.613 2.531 1.027 1.133 0.812 2.742 2.546 3.574 0.793 0.379 2.044-0.008 2.918 0.344 2.052 0.803 2.6 2.717 3.365 4.488 1.222 2.852 2.814 3.268 5.558 4.348 0.41 0.938 0.037 2.203-0.666 3.574H58.104C57.731 78.576 57.869 76.709 58.681 75.264zM55.465 50.167l0.674 0.127c0.658 0.082 1.284 0.193 1.806 0.365l-1.806-0.365c-0.197-0.008-0.395-0.029-0.581-0.052 0.552 0.589 1.426 0.335 2.208 0.492 0.041-0.009 0.093-0.023 0.134-0.038 0.008 0.029 0.008 0.038 0.015 0.06 0.31 0.09 0.607 0.269 0.842 0.611 1.251-0.299 1.994 1.064 3.618 0.803 0.138 0.418 0.521 1.043 0.606 1.43 0.187 0.082 0.156-0.312 0.361-0.207 0 0.029 0.011 0.668 0.011 0.668-2.274 0.559-1.593-0.959-2.725-1.592-1.191-0.656-2.424 0.133-2.714-1.712-0.056-0.007-0.101-0.015-0.148-0.021-0.969 0.245-2.163 0.498-3.253 0.378-0.016-0.32-0.045-0.587 0-0.916 0.335 0 0.691 0.022 1.045 0.045C55.531 50.22 55.49 50.198 55.465 50.167zM60.46 54.873c0.495-0.104 0.909-0.029 1.259 0.172l-0.552-0.447c0.778 0.238 1.334 0.492 1.448 1.199-0.559 0.133-1.593 0.133-2.155 0C60.435 55.469 60.427 55.201 60.46 54.873zM72.555 53.861l-0.496-0.254c0.403 0 0.831 0.148 1.203 0.291 0.104 0.387 0.111 0.967 0 1.355C71.984 55.275 71.314 54.479 72.555 53.861zM64.934 20.903c1.285 1.593-0.952 2.315-0.521 3.99 0.384 1.474 1.616-2.427 2.155-2.486 0.392 1.25 2.114 1.519 3.246 1.98 0.22 1.541-1.157 1.593-2.423 1.459 0.07 3.767-2.979 2.33-4.98 3.461-2.024 1.154-2.938 3.566-3.235 5.643-0.438 3.067-2.609 3.782-3.645 6.165-1.287 2.963 2.562 3.67 1.862 6.075-2.04-0.38-2.87-2.993-5.126-3.625-3.067-0.878-12.195 1.429-13.583 4.69-1.623 3.774 1.958 9.12 6.332 7.274 1.508-0.635 2.554-4.631 4.705-3.293l0.298 2.854c0.241 3.631 5.241 7.184 6.183 8.545 0.93 1.342 4.039 1.795 5.609 2.07 1.69 5.494-8.334-0.959-9.347-1.586-0.804-0.49-1.467-1.398-2.274-1.838-1.176-0.625-2.735-0.35-3.89-0.805-1.783-0.67-2.669-1.607-4.939-1.721-4.794-0.229-9.157-0.811-11.841-5.137-1.652-2.656-5.874-11.173-9.437-10.317-0.365 4.162 8.8 6.12 6.618 10.251-3.134 0.395-5.415-5.732-6.964-7.965-2.331-3.373-6.104-6.604-5.87-10.876 0.093-1.839 0.874-3.38 0.732-5.234-0.156-1.936-1.022-3.67-1.246-5.643-0.73-6.983-4.188-0.484-8.13-1.288 0.034-0.789 0.339-1.392 0.793-1.891 0.596-0.469 1.343-0.752 2.163-0.752H64.934zM4.674 24.053c-0.004 0.044-0.004 0.074-0.008 0.111C4.67 24.127 4.67 24.097 4.674 24.053z" data-fill-palette-color="accent"></path></g></svg></g></svg></g></svg></g></svg></g></svg></g></svg></g><defs></defs></svg><rect width="259.1466048412309" height="52.0187" fill="none" stroke="none" visibility="hidden"></rect></g></svg></g></svg>